<svg width="26" height="26" viewBox="0 0 26 26" fill="none" xmlns="http://www.w3.org/2000/svg">
<path fill-rule="evenodd" clip-rule="evenodd" d="M18.7177 15.0465C19.4487 15.0465 20.0622 15.6497 19.9504 16.3715C19.2947 20.6182 15.6593 23.7713 11.2747 23.7713C6.4236 23.7713 2.49167 19.8393 2.49167 14.9894C2.49167 10.9936 5.52728 7.27154 8.94491 6.42996C9.6793 6.24864 10.4319 6.76522 10.4319 7.52128C10.4319 12.6437 10.6041 13.9688 11.5768 14.6895C12.5496 15.4102 13.6933 15.0465 18.7177 15.0465Z" stroke="white" stroke-width="1.2" stroke-linecap="round" stroke-linejoin="round"/>
<path fill-rule="evenodd" clip-rule="evenodd" d="M23.5002 10.7808C23.5584 7.48975 19.5159 2.18484 14.5895 2.27606C14.2064 2.28291 13.8996 2.6022 13.8825 2.98422C13.7582 5.69027 13.9259 9.19685 14.0194 10.7865C14.0479 11.2814 14.4367 11.6703 14.9305 11.6988C16.5646 11.7923 20.1989 11.92 22.8662 11.5163C23.2288 11.4616 23.4945 11.1469 23.5002 10.7808Z" stroke="white" stroke-width="1.2" stroke-linecap="round" stroke-linejoin="round"/>
</svg>
