<svg width="43" height="43" viewBox="0 0 43 43" fill="none" xmlns="http://www.w3.org/2000/svg">
<path fill-rule="evenodd" clip-rule="evenodd" d="M16.4067 37.2154V31.7209C16.4066 30.3233 17.546 29.1877 18.9576 29.1783H24.1285C25.5469 29.1783 26.6967 30.3167 26.6967 31.7209V37.2325C26.6964 38.4191 27.653 39.3889 28.8513 39.4167H32.2985C35.735 39.4167 38.5208 36.6587 38.5208 33.2566V17.6261C38.5025 16.2877 37.8677 15.0309 36.7972 14.2133L25.0076 4.81116C22.9422 3.17405 20.0061 3.17405 17.9407 4.81116L6.20279 14.2304C5.12821 15.0447 4.4924 16.3036 4.47916 17.6432V33.2566C4.47916 36.6587 7.26498 39.4167 10.7015 39.4167H14.1487C15.3767 39.4167 16.3722 38.4311 16.3722 37.2154" fill="#A5A5A7"/>
</svg>
