<svg width="36" height="36" viewBox="0 0 36 36" fill="none" xmlns="http://www.w3.org/2000/svg">
<g clip-path="url(#clip0_1_1693)">
<path d="M35.6491 18.4146C35.6491 17.191 35.5499 15.9608 35.3383 14.7571H18.3601V21.6886H28.0827C27.6793 23.9241 26.3829 25.9017 24.4847 27.1583V31.6558H30.2852C33.6914 28.5208 35.6491 23.891 35.6491 18.4146Z" fill="#4285F4"/>
<path d="M18.3599 36.0012C23.2146 36.0012 27.3087 34.4073 30.2916 31.6558L24.4911 27.1583C22.8773 28.2562 20.7939 28.878 18.3665 28.878C13.6706 28.878 9.68895 25.7099 8.26033 21.4504H2.27466V26.0869C5.33033 32.1651 11.5541 36.0012 18.3599 36.0012Z" fill="#34A853"/>
<path d="M8.25392 21.4503C7.49992 19.2148 7.49992 16.7941 8.25392 14.5585V9.92212H2.27486C-0.278144 15.0083 -0.278144 21.0006 2.27486 26.0867L8.25392 21.4503Z" fill="#FBBC04"/>
<path d="M18.3599 7.12449C20.9261 7.08481 23.4064 8.05045 25.2649 9.823L30.404 4.68392C27.1499 1.62826 22.831 -0.051699 18.3599 0.001213C11.5541 0.001213 5.33033 3.83733 2.27466 9.92221L8.25371 14.5586C9.67572 10.2926 13.664 7.12449 18.3599 7.12449Z" fill="#EA4335"/>
</g>
<defs>
<clipPath id="clip0_1_1693">
<rect width="36" height="36" fill="white"/>
</clipPath>
</defs>
</svg>
