<svg width="25" height="27" viewBox="0 0 25 27" fill="none" xmlns="http://www.w3.org/2000/svg">
<path d="M12.15 27C13.9198 27 15.3994 25.8741 15.9543 24.3H8.3457C8.90055 25.8741 10.3801 27 12.15 27ZM21.6 16.9911V10.8C21.6 6.45705 18.6502 2.79855 14.6542 1.6983C14.2587 0.702 13.2921 0 12.15 0C11.0079 0 10.0413 0.702 9.64575 1.6983C5.64975 2.7999 2.7 6.45705 2.7 10.8V16.9911L0.39555 19.2955C0.14175 19.548 0 19.8909 0 20.25V21.6C0 22.3465 0.60345 22.95 1.35 22.95H22.95C23.6965 22.95 24.3 22.3465 24.3 21.6V20.25C24.3 19.8909 24.1582 19.548 23.9044 19.2955L21.6 16.9911Z" fill="white"/>
<circle cx="18.5" cy="5.5" r="5" fill="#B66C29" stroke="black"/>
</svg>
