<svg width="22" height="22" viewBox="0 0 22 22" fill="none" xmlns="http://www.w3.org/2000/svg">
<path d="M11 22C12.5046 22 13.9213 21.7115 15.2503 21.1347C16.5791 20.5651 17.7463 19.7736 18.7517 18.7606C19.7641 17.7477 20.5586 16.58 21.1351 15.2576C21.7117 13.9281 22 12.5071 22 10.9947C22 9.48937 21.7117 8.07546 21.1351 6.753C20.5586 5.4235 19.7641 4.25228 18.7517 3.23934C17.7463 2.22637 16.5756 1.435 15.2397 0.865232C13.9109 0.288409 12.4941 0 10.9895 0C9.48482 0 8.06807 0.288409 6.73922 0.865232C5.41035 1.435 4.23969 2.22637 3.22724 3.23934C2.22179 4.25228 1.43081 5.4235 0.854267 6.753C0.284756 8.07546 0 9.48937 0 10.9947C0 12.5071 0.284756 13.9281 0.854267 15.2576C1.43081 16.58 2.22531 17.7477 3.23778 18.7606C4.25024 19.7736 5.4209 20.5651 6.74976 21.1347C8.07862 21.7115 9.49537 22 11 22ZM9.82934 16.2283C9.61137 16.2283 9.41451 16.1825 9.23874 16.0911C9.06295 15.9926 8.89774 15.8449 8.74305 15.6479L6.20135 12.588C6.10291 12.4544 6.02557 12.3242 5.96932 12.1976C5.9201 12.0639 5.89549 11.9268 5.89549 11.7861C5.89549 11.4906 5.99745 11.2409 6.20135 11.0369C6.40524 10.8259 6.65485 10.7204 6.95014 10.7204C7.12592 10.7204 7.28412 10.7591 7.42474 10.8364C7.56536 10.9068 7.70598 11.0299 7.8466 11.2058L9.7977 13.6538L14.048 6.85851C14.3011 6.45755 14.6139 6.25708 14.9865 6.25708C15.2679 6.25708 15.5174 6.34853 15.7354 6.53141C15.9603 6.7143 16.0729 6.95347 16.0729 7.24892C16.0729 7.38257 16.0447 7.51623 15.9885 7.64988C15.9393 7.78353 15.876 7.91015 15.7986 8.02974L10.8734 15.6479C10.7469 15.8308 10.5922 15.975 10.4094 16.0806C10.2336 16.1791 10.0403 16.2283 9.82934 16.2283Z" fill="#3C7FFF"/>
</svg>
