<svg width="43" height="43" viewBox="0 0 43 43" fill="none" xmlns="http://www.w3.org/2000/svg">
<path fill-rule="evenodd" clip-rule="evenodd" d="M16.4068 37.2154V31.7208C16.4067 30.3232 17.5461 29.1877 18.9577 29.1783H24.1286C25.547 29.1783 26.6968 30.3166 26.6968 31.7208V37.2324C26.6965 38.419 27.6531 39.3888 28.8514 39.4166H32.2986C35.7351 39.4166 38.5209 36.6586 38.5209 33.2565V17.626C38.5026 16.2877 37.8678 15.0308 36.7973 14.2133L25.0077 4.81108C22.9423 3.17397 20.0062 3.17397 17.9408 4.81108L6.20288 14.2303C5.12829 15.0446 4.49248 16.3035 4.47925 17.6431V33.2565C4.47925 36.6586 7.26507 39.4166 10.7015 39.4166H14.1488C15.3768 39.4166 16.3723 38.4311 16.3723 37.2154" fill="#DFF91B"/>
</svg>
