<svg width="232" height="165" viewBox="0 0 232 165" fill="none" xmlns="http://www.w3.org/2000/svg">
<path fill-rule="evenodd" clip-rule="evenodd" d="M6.04157 50.8285C0.0343266 65.874 -1.53745 82.4292 1.52524 98.4017C4.58756 114.373 12.1468 129.045 23.2465 140.56C34.3462 152.075 48.4885 159.917 63.8841 163.094C79.2808 166.271 95.2389 164.64 109.742 158.408C124.244 152.177 136.64 141.623 145.361 128.083C145.593 127.722 145.823 127.359 146.05 126.994C146.21 126.737 146.369 126.478 146.527 126.219V164.676H152.632C168.329 164.676 183.674 159.847 196.726 150.799C209.778 141.753 219.951 128.893 225.958 113.847C231.966 98.8022 233.538 82.2469 230.475 66.2745C227.412 50.3027 219.854 35.6313 208.754 24.1164C197.654 12.601 183.511 4.75921 168.116 1.58231C152.719 -1.59497 136.761 0.035614 122.258 6.26764C107.756 12.4997 95.3601 23.0533 86.6392 36.5935C86.2425 37.2098 85.8539 37.8314 85.4734 38.4572V4.90943e-05H79.3683C63.6707 4.90943e-05 48.3256 4.82918 35.2737 13.8767C22.2218 22.9237 12.0489 35.7832 6.04157 50.8285ZM73.2633 82.3381V12.9558C62.1354 14.0096 51.4021 17.9319 42.0575 24.409C31.0134 32.0644 22.4059 42.9458 17.3227 55.6762C12.2396 68.4071 10.9097 82.4151 13.501 95.9303C16.0923 109.445 22.4886 121.859 31.8805 131.603C41.2728 141.346 53.2392 147.982 66.2667 150.67C79.2941 153.358 92.7971 151.978 105.069 146.705C116.847 141.644 126.983 133.214 134.304 122.413C128.756 125.146 122.55 126.674 116 126.674C92.3975 126.674 73.2633 106.824 73.2633 82.3381ZM158.737 151.72V82.3381C158.737 57.8522 139.603 38.0022 116 38.0022C109.45 38.0022 103.244 39.5308 97.6958 42.2631C105.017 31.4625 115.153 23.032 126.931 17.9709C139.203 12.6976 152.706 11.3179 165.733 14.0062C178.761 16.6944 190.727 23.33 200.12 33.0733C209.512 42.817 215.908 55.2312 218.499 68.7458C221.09 82.261 219.76 96.2691 214.677 109C209.595 121.73 200.987 132.612 189.942 140.267C180.598 146.744 169.865 150.666 158.737 151.72ZM115.389 114.001C99.0147 113.667 85.8011 99.9584 85.4798 82.9715H97.0288C106.139 85.1258 113.312 92.5657 115.389 102.017V114.001ZM116.61 114.001C132.985 113.667 146.199 99.9584 146.52 82.9715H134.971C125.859 85.1258 118.687 92.5668 116.61 102.02V114.001ZM146.52 81.7047C146.199 64.7177 132.985 51.009 116.61 50.6758V62.6563C118.687 72.1088 125.859 79.5498 134.969 81.7047H146.52ZM115.389 50.6758C99.0153 51.009 85.8011 64.7177 85.4798 81.7047H97.0305C106.141 79.5498 113.312 72.1099 115.389 62.6587V50.6758Z" fill="#FDBF62"/>
</svg>
