<svg width="120" height="120" viewBox="0 0 120 120" fill="none" xmlns="http://www.w3.org/2000/svg">
<path d="M60 120C68.2071 120 75.9345 118.426 83.1833 115.28C90.4313 112.173 96.798 107.856 102.282 102.331C107.804 96.8055 112.138 90.4365 115.283 83.223C118.427 75.9713 120 68.2206 120 59.9712C120 51.7602 118.427 44.048 115.283 36.8345C112.138 29.5827 107.804 23.1943 102.282 17.6691C96.798 12.1439 90.4125 7.8273 83.1255 4.71945C75.8775 1.57314 68.1496 0 59.9425 0C51.7354 0 44.0077 1.57314 36.7594 4.71945C29.511 7.8273 23.1256 12.1439 17.6031 17.6691C12.1189 23.1943 7.80442 29.5827 4.65964 36.8345C1.55321 44.048 0 51.7602 0 59.9712C0 68.2206 1.55321 75.9713 4.65964 83.223C7.80442 90.4365 12.1381 96.8055 17.6606 102.331C23.1831 107.856 29.5685 112.173 36.8169 115.28C44.0652 118.426 51.7929 120 60 120ZM53.6146 88.518C52.4257 88.518 51.3519 88.2682 50.3931 87.7695C49.4343 87.2325 48.5331 86.427 47.6894 85.3522L33.8255 68.6619C33.2886 67.9328 32.8667 67.223 32.5599 66.5323C32.2915 65.8034 32.1572 65.0552 32.1572 64.2878C32.1572 62.6762 32.7133 61.3142 33.8255 60.2015C34.9377 59.0504 36.2992 58.4748 37.9099 58.4748C38.8687 58.4748 39.7315 58.6859 40.4986 59.1079C41.2656 59.4916 42.0326 60.1631 42.7997 61.1223L53.442 74.475L76.6253 37.4101C78.006 35.223 79.7122 34.1295 81.7448 34.1295C83.2793 34.1295 84.6405 34.6283 85.8293 35.6259C87.0563 36.6235 87.6705 37.928 87.6705 39.5396C87.6705 40.2686 87.5168 40.9976 87.21 41.7266C86.9415 42.4556 86.5965 43.1463 86.1742 43.7986L59.3097 85.3522C58.6194 86.3497 57.7757 87.1365 56.7785 87.7125C55.8197 88.2495 54.7651 88.518 53.6146 88.518Z" fill="#E0FE10"/>
</svg>
