<svg width="22" height="20" viewBox="0 0 22 20" fill="none" xmlns="http://www.w3.org/2000/svg">
<g clip-path="url(#clip0_1_821)">
<path d="M8.76896 7.55935C8.76896 7.55935 9.21697 2.79254 9.11583 1.05167C9.06396 0.158744 8.73395 -0.0432677 8.22953 0.00765967C7.72511 0.0585871 4.84058 2.06598 4.84058 2.06598L5.25163 3.36462L7.65055 2.37663C7.65055 2.37663 7.40612 4.23124 7.34971 4.58349C7.2933 4.93574 7.1753 5.41021 7.08129 5.83545C7.03526 6.0451 6.97107 6.31672 6.97107 6.44828C6.97237 6.75894 8.76896 7.55935 8.76896 7.55935Z" fill="#FFEDE5"/>
<path d="M7.65054 2.37668C7.98509 2.2918 8.319 2.03292 8.42403 1.82666C8.37009 2.05859 8.25101 2.25513 8.09078 2.37668C7.93827 2.50541 7.77675 2.61483 7.6084 2.70346L7.65054 2.37668Z" fill="#F28F8F"/>
<path d="M13.31 7.47441C13.2601 7.23165 12.9346 6.97617 11.9647 6.76312C10.9947 6.55007 10.1123 6.76312 10.1071 6.91336C10.1019 7.06359 10.3464 8.06771 11.4648 8.25105C12.5832 8.43439 13.4125 8.00745 13.31 7.47441Z" fill="#263238"/>
<path d="M10.3925 9.53809C10.3925 9.53809 9.76031 4.17034 9.85108 3.07455C9.94509 1.94226 10.2732 1.41686 10.8236 1.34302C11.5426 1.88964 11.9258 3.19593 12.3855 4.48354C12.8452 5.77116 13.3431 8.53312 13.3697 9.85299C13.3963 11.1729 12.5988 12.1133 11.6956 12.2848C10.7925 12.4562 10.3925 9.53809 10.3925 9.53809Z" fill="#FFEDE5"/>
<path d="M11.3857 5.33569C11.094 5.02869 10.8969 4.594 10.8307 4.11173L11.7351 3.69922L12.3453 4.36382L12.3634 4.4156C12.3712 4.43767 12.379 4.45973 12.3874 4.4818C12.4049 4.53103 12.4224 4.58281 12.4399 4.63543C12.4444 4.65071 12.4496 4.66599 12.4548 4.68212C12.4684 4.72286 12.4814 4.767 12.495 4.80944L12.5086 4.85357C12.5268 4.91214 12.5443 4.9724 12.5624 5.03437C12.58 5.09633 12.5975 5.15999 12.615 5.22449C12.6189 5.23892 12.6227 5.2525 12.626 5.26608L12.6727 5.44433C12.6727 5.45282 12.6772 5.46216 12.6798 5.47064C12.7161 5.61494 12.7524 5.76432 12.7874 5.91711L12.7933 5.94172C12.8108 6.01726 12.8276 6.09365 12.8445 6.17089C12.8445 6.17089 12.0042 6.01302 11.3857 5.33569Z" fill="#F28F8F"/>
<path d="M10.6329 1.38884C10.9766 1.21145 11.3947 1.6265 11.6158 1.81324C12.0651 2.1901 14.8122 4.99281 15.4528 5.64977C15.5916 5.76011 15.7329 5.86621 15.8768 5.96637L15.1221 7.51117C15.0602 7.28916 14.9632 7.08672 14.8375 6.91701C14.1529 6.27703 12.8276 5.92817 11.9744 5.49359C11.3105 5.15408 11.1717 4.96395 10.948 4.46741C10.7769 4.07442 10.159 1.68252 10.6329 1.38884Z" fill="#FFEDE5"/>
<path d="M10.3788 9.56774L10.1072 6.91357C10.1072 6.91357 10.351 7.64523 11.6062 7.83791C12.8614 8.03058 13.3418 7.75303 13.3101 7.47462C13.3101 7.47462 13.6381 9.13656 13.511 10.2162C13.384 11.2959 12.1242 12.446 12.1242 12.446L10.3788 9.56774Z" fill="#37474F"/>
<path opacity="0.15" d="M10.9345 9.93093C10.8191 9.93093 10.7108 9.94027 10.6104 9.94876L12.0056 12.2464H12.3298C12.6916 11.8704 13.4171 11.025 13.5117 10.2187C13.6051 9.42675 13.4534 8.32332 13.3659 7.79028C13.4158 8.40311 12.3687 9.89104 10.9345 9.93093Z" fill="black"/>
<path d="M17.2184 3.72042C16.7645 3.61008 16.5538 4.03872 16.3865 4.39267C16.2193 4.74661 15.9392 5.39594 15.8141 5.50543C15.6889 5.61492 15.6195 5.50543 15.4412 5.68113C15.2629 5.85683 15.1326 6.1904 15.1877 6.31178L15.3174 6.60716C15.2426 6.59644 15.167 6.60891 15.0966 6.64356C15.0262 6.67821 14.963 6.73408 14.9122 6.80663C14.7177 7.06126 14.8188 7.1037 14.9284 7.248C15.038 7.39229 15.2954 8.04416 15.5534 8.22156C15.5534 8.22156 16.2484 7.9491 16.7522 6.91697C17.256 5.88484 17.2184 3.72042 17.2184 3.72042Z" fill="url(#paint0_linear_1_821)"/>
<path d="M15.6967 8.35817C15.6701 8.35198 15.6448 8.33861 15.6224 8.31891C15.6 8.29922 15.5809 8.27362 15.5665 8.24376C15.552 8.2139 15.5425 8.18042 15.5384 8.14546C15.5344 8.11051 15.536 8.07484 15.5431 8.04072C15.6199 7.72245 15.7352 7.42239 15.8847 7.15204C16.0591 6.8278 16.3859 6.21837 16.441 5.88479C16.4961 5.55122 16.6148 4.6167 16.8086 4.22541C17.0025 3.83411 17.2015 3.60834 17.457 3.73481C17.7125 3.86128 16.9059 6.36606 16.6692 6.79045C16.4326 7.21485 15.6967 8.35817 15.6967 8.35817Z" fill="#37474F"/>
<path d="M15.8457 8.30383C16.4844 7.85821 16.6944 7.42533 16.8831 6.86089C17.0718 6.29644 17.5127 5.77613 17.6268 5.2694C17.7409 4.76268 17.7525 3.46318 17.3136 3.77808C16.8747 4.09298 16.7833 5.25497 16.5907 5.92637C16.3981 6.59776 15.2194 8.74265 15.8457 8.30383Z" fill="#263238"/>
<path d="M12.0075 9.67631C12.2993 9.61774 12.8601 9.77561 13.369 10.7059C13.9156 11.7049 14.0174 13.4483 13.6744 13.5918C13.6744 13.5918 12.8795 13.4695 12.3336 13.0952C11.7877 12.7209 10.8703 10.1924 12.0075 9.67631Z" fill="#263238"/>
<path d="M21.3309 17.9945C20.4842 17.559 19.7911 16.8104 19.1914 15.9735C18.709 15.1162 16.642 11.4452 16.2835 10.9283C16.1538 10.7449 15.8465 10.273 15.4205 10.155C13.9125 9.73064 11.12 9.79345 11.12 9.79345L10.0463 9.55664L7.90674 12.193C8.20174 12.6046 8.57195 12.9637 9.11333 13.3329C9.6547 13.7021 10.2402 13.9704 11.0299 13.8829C12.6106 13.7081 13.5585 13.1233 14.4046 12.8644C14.6496 12.7897 14.9038 12.7209 15.0964 13.2472C15.2889 13.7734 15.3045 14.0374 15.8744 14.5968C16.6051 15.3148 17.8117 16.1178 18.3381 16.9734C18.4248 17.1831 18.4766 17.4146 18.4898 17.6524C18.5398 18.5547 19.1181 18.3773 19.5843 18.7694C19.8384 18.9833 20.0271 19.243 20.3331 19.3313C20.6118 19.4064 20.8997 19.3994 21.176 19.3109C21.425 19.2337 21.7815 18.9986 21.9041 18.6811C22.0649 18.2584 21.5747 18.1192 21.3309 17.9945Z" fill="#FFEDE5"/>
<path d="M21.3309 17.9945C20.4842 17.559 19.7911 16.8104 19.1914 15.9735C18.709 15.1162 16.642 11.4452 16.2835 10.9283C16.1538 10.7449 15.8465 10.273 15.4205 10.155C13.9125 9.73064 11.12 9.79345 11.12 9.79345L10.0463 9.55664L7.90674 12.193C8.20174 12.6046 8.57195 12.9637 9.11333 13.3329C9.6547 13.7021 10.2402 13.9704 11.0299 13.8829C12.6106 13.7081 13.5585 13.1233 14.4046 12.8644C14.6496 12.7897 14.9038 12.7209 15.0964 13.2472C15.2889 13.7734 15.3045 14.0374 15.8744 14.5968C16.6051 15.3148 17.8117 16.1178 18.3381 16.9734C18.4248 17.1831 18.4766 17.4146 18.4898 17.6524C18.5398 18.5547 19.1181 18.3773 19.5843 18.7694C19.8384 18.9833 20.0271 19.243 20.3331 19.3313C20.6118 19.4064 20.8997 19.3994 21.176 19.3109C21.425 19.2337 21.7815 18.9986 21.9041 18.6811C22.0649 18.2584 21.5747 18.1192 21.3309 17.9945Z" fill="#FFEDE5"/>
<path d="M15.8258 14.1691C15.6652 13.9362 15.5434 13.6622 15.4679 13.3645C15.4099 13.1156 15.3352 12.8739 15.2448 12.6421C14.9816 12.048 13.2349 12.806 12.4614 13.1166C12.418 13.2015 12.2365 13.4561 12.1716 13.6683C13.1085 13.4179 13.7828 13.0538 14.4033 12.8637C14.6483 12.789 14.9025 12.7202 15.0951 13.2465C15.2876 13.7727 15.3032 14.0367 15.8731 14.5961C16.17 14.888 16.5454 15.1902 16.9221 15.5119C16.5013 15.0841 16.1843 14.6555 15.8258 14.1691Z" fill="#F28F8F"/>
<path d="M10.2122 9.55664C10.2122 9.55664 11.7469 9.6551 12.0075 9.67972C12.0075 9.67972 11.4299 9.88343 12.1327 11.7431C12.8355 13.6028 13.6751 13.5926 13.6751 13.5926C12.5729 14.0544 12.0004 14.573 10.5954 14.3566C8.92072 14.04 7.9054 12.3984 7.9054 12.3984L10.2122 9.55664Z" fill="#455A64"/>
<path opacity="0.15" d="M13.6712 13.5927C13.6585 13.5938 13.6457 13.5938 13.633 13.5927C13.5078 13.574 13.1357 13.4671 12.7188 12.8857C12.3879 13.0012 12.0521 13.0916 11.7132 13.1564C10.4606 13.3966 9.5211 13.1072 8.1213 12.1302L7.9054 12.3968C8.46092 13.2169 9.17356 13.8281 9.96976 14.1673C10.0184 14.1869 10.0683 14.2064 10.1189 14.2242C10.1662 14.2403 10.2142 14.2565 10.2622 14.2709L10.2751 14.2751C10.3192 14.2887 10.3646 14.3006 10.41 14.3125L10.434 14.3184C10.4871 14.332 10.5403 14.3439 10.5948 14.3541C10.683 14.3677 10.7672 14.3779 10.8489 14.3863C10.9306 14.3948 11.0091 14.3991 11.0856 14.4025H11.1977C11.2347 14.4025 11.271 14.4025 11.3067 14.4025C11.4136 14.4025 11.5154 14.3914 11.6133 14.3787C11.6782 14.3702 11.7417 14.36 11.804 14.3481C11.9539 14.3184 12.1024 14.2776 12.2487 14.2259C12.3058 14.2055 12.3622 14.1843 12.4179 14.1614C12.5586 14.1054 12.6974 14.0426 12.84 13.9747L13.0131 13.8898C13.218 13.7913 13.4333 13.6878 13.6745 13.5868L13.6712 13.5927Z" fill="black"/>
<path d="M5.08057 7.02482C4.45685 7.30831 3.8675 7.80401 4.36738 9.25459C5.08057 11.3494 8.31327 13.6751 9.97306 14.1691C9.1302 12.4995 9.83172 10.7298 10.3822 9.56779L10.2337 8.14861C10.2337 8.14861 9.73577 7.83541 8.91106 7.00105C8.08635 6.16669 7.74402 5.94006 6.51668 6.42896C5.67317 6.76509 5.08057 7.02482 5.08057 7.02482Z" fill="url(#paint1_linear_1_821)"/>
<path opacity="0.05" d="M7.60708 11.7592C5.90969 10.486 5.37609 9.35206 4.71023 8.26306L4.27454 8.95907C4.28621 9.00406 4.29917 9.04989 4.31344 9.09742C4.31319 9.09996 4.31319 9.10252 4.31344 9.10506C4.3277 9.15344 4.34391 9.20352 4.36142 9.25445C4.67781 10.1711 5.47205 11.132 6.40568 11.968C6.53535 12.0869 6.6754 12.2031 6.81285 12.316C6.88222 12.3729 6.9516 12.4289 7.02162 12.4858C7.49644 12.858 7.98791 13.1924 8.49339 13.4874C8.96764 13.774 9.4615 14.0013 9.9684 14.1664C9.78378 13.8072 9.66039 13.4002 9.60661 12.973C9.01661 12.7404 8.38381 12.3423 7.60708 11.7592Z" fill="black"/>
<path d="M4.6124 7.30911C4.6124 7.30911 2.51886 5.8441 2.18755 5.64633L4.0198 4.23819L3.63079 2.91663C3.63079 2.91663 0.907698 4.18387 0.389013 4.548C0.117352 4.74068 0 4.8994 0 5.17271C0 5.62851 0.33131 6.21927 0.790345 6.73109C1.76612 7.82009 3.09006 8.83439 4.37964 9.76127C4.67529 10.0482 4.98261 10.4089 4.98261 10.4089C5.3217 10.6313 5.8151 8.5789 4.6124 7.30911Z" fill="#FFEDE5"/>
<path d="M6.57239 2.21723C6.44162 1.81979 6.1956 1.50664 5.88846 1.34667C5.58133 1.18669 5.23823 1.193 4.93464 1.36419C4.63106 1.53539 4.39185 1.85746 4.26965 2.25955C4.14746 2.66163 4.15227 3.1108 4.28304 3.50824C4.29147 3.5354 4.30185 3.56002 4.31157 3.58548L3.99517 4.48689L3.52771 3.35885C3.5279 3.27 3.50286 3.18422 3.45745 3.11819C3.41204 3.05215 3.3495 3.01056 3.28198 3.00151C3.24774 2.99769 3.21326 3.00302 3.18065 3.01718C3.14803 3.03134 3.11795 3.05403 3.09224 3.08388C3.06652 3.11373 3.04572 3.15011 3.03108 3.19082C3.01644 3.23152 3.00827 3.27569 3.00708 3.32066L3.36432 3.3614C3.28593 3.42947 3.22584 3.52803 3.19251 3.6432C3.10758 3.93348 3.40323 4.52509 3.79937 5.04455C3.79937 5.04455 4.3602 6.08092 4.49635 6.22607C4.58408 6.31348 4.69406 6.35357 4.80367 6.33811L4.83739 4.30101C5.06511 4.46191 5.32546 4.52595 5.58226 4.48425C5.83906 4.44254 6.07957 4.29716 6.27035 4.0683C6.46114 3.83943 6.59274 3.53846 6.64687 3.20718C6.701 2.87591 6.67496 2.53079 6.57239 2.21978V2.21723Z" fill="#263238"/>
<path d="M4.27069 4.83828C4.21883 4.9325 4.06063 4.81282 3.93549 4.74322C3.81036 4.67362 3.47516 4.67107 3.4622 5.13876C3.44923 5.60644 3.88816 5.98755 4.14037 5.95275C4.57477 5.89418 4.52939 5.54023 4.52939 5.54023L5.16737 7.38975C5.90585 7.91939 7.28036 7.08588 6.45565 6.56218L6.27346 6.01301C6.4311 5.95756 6.58337 5.87867 6.72731 5.77789C6.98665 5.5623 7.07159 5.17186 7.02555 4.72455C6.95229 4.00732 6.83105 3.4607 6.30329 2.26305C5.71977 0.954219 4.48789 1.63155 4.00681 2.55079C3.52573 3.47003 4.27069 4.83828 4.27069 4.83828Z" fill="#FFEDE5"/>
<path d="M4.32189 4.99532C4.28688 5.01654 4.05672 4.80095 3.93288 4.74578C3.76496 4.67024 3.492 3.27907 3.492 3.27907C3.492 3.27907 3.26896 3.02019 3.3915 2.55336C3.492 2.17055 3.86286 1.91422 4.11961 1.74446C4.58253 1.43804 5.10057 1.08919 5.32749 0.447507C5.34565 0.396579 5.37158 0.338861 5.41437 0.338013C5.42766 0.339565 5.44059 0.344567 5.45239 0.352728C5.46419 0.360889 5.47463 0.372045 5.4831 0.385545C5.58999 0.542639 5.65026 0.744734 5.65297 0.955083C5.65297 0.974605 5.6575 0.99922 5.67242 1.00516C5.68733 1.0111 5.69835 0.994976 5.70743 0.980547C5.75451 0.905066 5.79036 0.818694 5.81311 0.72591C5.84423 0.59944 6.00762 0.921132 6.01929 0.965269C6.05751 1.10491 6.074 1.25315 6.06776 1.40126C6.06152 1.54937 6.0327 1.69435 5.98298 1.82764C5.88184 2.09331 5.67371 2.25798 5.4831 2.40312C5.05842 2.72736 4.33227 3.03632 4.23112 3.07281C4.09367 3.12289 4.12025 3.30369 4.19806 3.79344C4.26938 4.22632 4.43925 4.92318 4.32189 4.99532Z" fill="#263238"/>
<path d="M6.27353 6.01292C6.27353 6.01292 5.51495 6.22257 5.24524 6.19626C5.087 6.18122 4.93598 6.10367 4.81213 5.97388C4.90016 6.12352 5.01044 6.24825 5.13631 6.34055C5.38528 6.5188 6.34485 6.23446 6.34485 6.23446L6.27353 6.01292Z" fill="#F28F8F"/>
<path d="M5.0884 3.42851L4.86277 3.75105C4.83027 3.70967 4.81125 3.65344 4.80968 3.59412C4.80811 3.5348 4.82411 3.47698 4.85435 3.43275C4.86935 3.41202 4.88738 3.39543 4.90736 3.38396C4.92734 3.37249 4.94887 3.36638 4.97069 3.36599C4.99251 3.36559 5.01416 3.37092 5.03438 3.38166C5.05459 3.3924 5.07296 3.40833 5.0884 3.42851Z" fill="#263238"/>
<path d="M5.81506 5.07603L6.14897 5.05566C6.15101 5.08442 6.14859 5.11342 6.14187 5.14092C6.13515 5.16843 6.12427 5.19388 6.10986 5.21575C6.09545 5.23762 6.07783 5.25546 6.05803 5.26821C6.03824 5.28095 6.01668 5.28834 5.99466 5.28993C5.94941 5.2916 5.90542 5.27025 5.87193 5.23037C5.83845 5.19048 5.81806 5.13517 5.81506 5.07603Z" fill="#F28F8F"/>
<path d="M6.46151 2.91653L6.13733 2.80788C6.14174 2.77962 6.15048 2.75282 6.16304 2.72911C6.17559 2.70541 6.19169 2.68528 6.21037 2.66997C6.22904 2.65465 6.24989 2.64445 6.27166 2.64C6.29344 2.63555 6.31567 2.63693 6.33702 2.64407C6.38037 2.66021 6.41738 2.69738 6.44051 2.748C6.46364 2.79863 6.47115 2.8589 6.46151 2.91653Z" fill="#263238"/>
<path d="M5.76978 3.58118L5.99086 4.62264L6.37988 4.31368L5.76978 3.58118Z" fill="#F28F8F"/>
<path d="M5.15442 4.04803C5.15455 4.0856 5.16318 4.12228 5.17921 4.15343C5.19525 4.18459 5.21797 4.20882 5.24452 4.22308C5.27107 4.23734 5.30025 4.24099 5.32838 4.23356C5.35651 4.22612 5.38233 4.20795 5.40257 4.18133C5.42282 4.1547 5.43659 4.12082 5.44214 4.08397C5.44769 4.04711 5.44478 4.00892 5.43377 3.97423C5.42276 3.93954 5.40414 3.90989 5.38027 3.88904C5.3564 3.86819 5.32835 3.85706 5.29965 3.85706C5.28053 3.85706 5.26159 3.862 5.24392 3.87161C5.22626 3.88122 5.21022 3.8953 5.19673 3.91304C5.18323 3.93079 5.17255 3.95185 5.16529 3.97501C5.15803 3.99818 5.15434 4.02299 5.15442 4.04803Z" fill="#263238"/>
<path d="M6.20545 3.50915C6.20532 3.54565 6.21348 3.58137 6.22889 3.61179C6.2443 3.64221 6.26626 3.66595 6.292 3.68C6.31773 3.69404 6.34608 3.69776 6.37343 3.69068C6.40078 3.6836 6.42591 3.66604 6.44562 3.64023C6.46534 3.61442 6.47875 3.58153 6.48416 3.54572C6.48957 3.50991 6.48673 3.47281 6.476 3.43912C6.46527 3.40543 6.44714 3.37667 6.4239 3.35649C6.40066 3.33632 6.37337 3.32564 6.34549 3.32581C6.3084 3.32603 6.27288 3.34542 6.24665 3.37975C6.22043 3.41409 6.20562 3.46059 6.20545 3.50915Z" fill="#263238"/>
<path d="M18.4054 17.8418C18.3503 17.891 18.4359 18.2017 18.4858 18.2781C18.5898 18.4104 18.7183 18.5052 18.8586 18.5531C19.1139 18.6554 19.3524 18.8189 19.5621 19.0352C19.8207 19.3093 20.1215 19.507 20.4438 19.6149C20.8264 19.7261 21.2686 19.5844 21.6543 19.2847C22.0589 18.9715 22.0213 18.6711 21.9662 18.4707L18.4054 17.8418Z" fill="#37474F"/>
<path d="M19.2807 16.0984C19.4104 16.2783 20.1158 17.1916 20.6572 17.4242C21.0884 17.6092 21.6492 17.7858 21.8949 18.1295C22.1504 18.4877 21.7698 18.9461 21.2466 19.2092C20.7006 19.4825 20.3298 19.2618 19.9674 19.0233C19.7126 18.8536 19.3372 18.514 19.1485 18.3774C18.9598 18.2407 18.6103 18.166 18.4645 17.9632C18.3841 17.8511 18.3264 17.5388 18.2914 17.2646C18.2596 17.01 18.1312 16.78 18.1967 16.7664L18.303 16.9183C18.7958 17.0372 19.3093 16.4413 19.2807 16.0984Z" fill="url(#paint2_linear_1_821)"/>
<path d="M2.18753 5.64624C1.87682 5.86597 1.54128 6.01928 1.1936 6.10034C1.1936 6.10034 1.74406 6.28113 2.3989 5.78459L2.18753 5.64624Z" fill="#F28F8F"/>
</g>
<defs>
<linearGradient id="paint0_linear_1_821" x1="17.219" y1="8.22156" x2="13.9842" y2="8.08769" gradientUnits="userSpaceOnUse">
<stop stop-color="#92A3FD"/>
<stop offset="1" stop-color="#9DCEFF"/>
</linearGradient>
<linearGradient id="paint1_linear_1_821" x1="10.3822" y1="14.1691" x2="2.09607" y2="13.6717" gradientUnits="userSpaceOnUse">
<stop stop-color="#92A3FD"/>
<stop offset="1" stop-color="#9DCEFF"/>
</linearGradient>
<linearGradient id="paint2_linear_1_821" x1="21.9764" y1="19.3355" x2="16.9257" y2="18.877" gradientUnits="userSpaceOnUse">
<stop stop-color="#92A3FD"/>
<stop offset="1" stop-color="#9DCEFF"/>
</linearGradient>
<clipPath id="clip0_1_821">
<rect width="22" height="19.6529" fill="white"/>
</clipPath>
</defs>
</svg>
