<svg width="37" height="37" viewBox="0 0 37 37" fill="none" xmlns="http://www.w3.org/2000/svg">
<path fill-rule="evenodd" clip-rule="evenodd" d="M10.4062 3.46875C11.0448 3.46875 11.5625 3.98642 11.5625 4.625V6.9375H25.4375V4.625C25.4375 3.98642 25.9552 3.46875 26.5938 3.46875C27.2323 3.46875 27.75 3.98642 27.75 4.625V6.9375H28.9062C31.4606 6.9375 33.5312 9.00818 33.5312 11.5625V28.9062C33.5312 31.4606 31.4606 33.5312 28.9062 33.5312H8.09375C5.53943 33.5312 3.46875 31.4606 3.46875 28.9062V11.5625C3.46875 9.00818 5.53943 6.9375 8.09375 6.9375H9.25V4.625C9.25 3.98642 9.76767 3.46875 10.4062 3.46875ZM31.2188 17.3438C31.2188 16.0666 30.1834 15.0312 28.9062 15.0312H8.09375C6.81659 15.0312 5.78125 16.0666 5.78125 17.3438V28.9062C5.78125 30.1834 6.81659 31.2188 8.09375 31.2188H28.9062C30.1834 31.2188 31.2188 30.1834 31.2188 28.9062V17.3438Z" fill="#DFF91B"/>
</svg>
