<svg width="12" height="12" viewBox="0 0 12 12" fill="none" xmlns="http://www.w3.org/2000/svg">
<path fill-rule="evenodd" clip-rule="evenodd" d="M6 5.3591C5.61 5.3591 5.244 5.50477 4.962 5.77864C4.686 6.04667 4.536 6.40211 4.542 6.7692V6.77503C4.542 7.15377 4.692 7.50921 4.968 7.77725C5.244 8.04528 5.61 8.19096 6 8.19096C6.804 8.19096 7.452 7.55583 7.458 6.77503C7.458 6.39628 7.308 6.04084 7.032 5.77281C6.756 5.50477 6.39 5.3591 6 5.3591ZM9.366 5.39989C9.066 5.39989 8.826 5.16682 8.826 4.87547C8.826 4.58413 9.066 4.34523 9.366 4.34523C9.666 4.34523 9.912 4.58413 9.912 4.87547C9.912 5.16682 9.666 5.39989 9.366 5.39989ZM7.662 8.3949C7.236 8.8086 6.648 9.06498 6 9.06498C5.37 9.06498 4.782 8.82608 4.332 8.3949C3.888 7.95788 3.642 7.38685 3.642 6.77503C3.636 6.16904 3.882 5.598 4.326 5.16099C4.776 4.72398 5.37 4.48507 6 4.48507C6.63 4.48507 7.224 4.72398 7.668 5.15516C8.112 5.59218 8.358 6.16904 8.358 6.77503C8.352 7.41016 8.088 7.98119 7.662 8.3949ZM9.384 2.70788C9.33 2.70788 9.288 2.67875 9.264 2.63796L9.204 2.50977C9.042 2.17764 8.856 1.79307 8.742 1.57165C8.466 1.04723 7.992 0.755885 7.41 0.750058H4.584C4.002 0.755885 3.534 1.04723 3.258 1.57165C3.138 1.80472 2.934 2.22425 2.766 2.56804L2.73 2.63796C2.712 2.68457 2.664 2.70788 2.616 2.70788C1.17 2.70788 0 3.84995 0 5.24839V8.70954C0 10.108 1.17 11.2501 2.616 11.2501H9.384C10.824 11.2501 12 10.108 12 8.70954V5.24839C12 3.84995 10.824 2.70788 9.384 2.70788Z" fill="white"/>
</svg>
