<svg width="23" height="29" viewBox="0 0 23 29" fill="none" xmlns="http://www.w3.org/2000/svg">
<g clip-path="url(#clip0_1_753)">
<g opacity="0.3">
<path opacity="0.3" d="M5.76596 17.346H5.75199L5.21546 17.1901C5.19705 17.1844 5.18158 17.1715 5.17237 17.1542C5.16315 17.137 5.16093 17.1167 5.16617 17.0978C5.17141 17.0789 5.18369 17.0629 5.2004 17.0531C5.2171 17.0433 5.23689 17.0406 5.25551 17.0456L5.78832 17.1996C5.80521 17.2053 5.81953 17.217 5.82863 17.2326C5.83773 17.2482 5.84099 17.2666 5.83781 17.2844C5.83463 17.3023 5.82522 17.3184 5.81133 17.3297C5.79744 17.341 5.78 17.3468 5.76224 17.346H5.76596Z" fill="black"/>
<path opacity="0.3" d="M5.21625 17.7681C5.20106 17.7666 5.18667 17.7605 5.17501 17.7505C5.16335 17.7404 5.15499 17.727 5.15105 17.712C5.14811 17.7021 5.14719 17.6917 5.14835 17.6815C5.14951 17.6712 5.15273 17.6614 5.1578 17.6524C5.16286 17.6435 5.16968 17.6358 5.17781 17.6296C5.18594 17.6235 5.19522 17.6192 5.20507 17.6169L5.7416 17.4781C5.76022 17.474 5.77967 17.4774 5.79587 17.4876C5.81206 17.4979 5.82374 17.5141 5.82844 17.5329C5.83315 17.5518 5.83051 17.5717 5.82109 17.5886C5.81167 17.6055 5.7962 17.618 5.77793 17.6235L5.24047 17.7624C5.23278 17.7657 5.22458 17.7676 5.21625 17.7681Z" fill="black"/>
<path opacity="0.3" d="M5.4902 18.2739C5.47253 18.2721 5.45604 18.2641 5.44363 18.2511C5.43003 18.237 5.42241 18.2181 5.42241 18.1983C5.42241 18.1786 5.43003 18.1596 5.44363 18.1456L5.84044 17.751C5.84719 17.7434 5.85539 17.7373 5.86454 17.7331C5.87369 17.7288 5.88359 17.7265 5.89364 17.7264C5.90368 17.7262 5.91366 17.7281 5.92295 17.732C5.93223 17.7359 5.94064 17.7417 5.94765 17.7491C5.95466 17.7564 5.96011 17.7652 5.96369 17.7747C5.96726 17.7843 5.96888 17.7946 5.96843 17.8048C5.96799 17.815 5.96549 17.8251 5.9611 17.8343C5.95671 17.8435 5.95051 17.8517 5.9429 17.8584L5.54795 18.2549C5.54014 18.262 5.53097 18.2673 5.52103 18.2706C5.51109 18.2739 5.50059 18.275 5.4902 18.2739Z" fill="black"/>
<path opacity="0.3" d="M5.97174 18.5734H5.95777C5.94826 18.5707 5.93938 18.5661 5.93166 18.5598C5.92395 18.5535 5.91755 18.5457 5.91286 18.5368C5.90816 18.5279 5.90527 18.5182 5.90434 18.5081C5.90342 18.4981 5.90448 18.488 5.90747 18.4784L6.05465 17.9345C6.06027 17.9157 6.07289 17.8999 6.08979 17.8905C6.10669 17.8811 6.12653 17.8788 6.14505 17.8842C6.16357 17.8895 6.1793 17.9021 6.18887 17.9191C6.19844 17.9362 6.20108 17.9564 6.19623 17.9754L6.04533 18.5192C6.04076 18.5354 6.03103 18.5495 6.0177 18.5593C6.00436 18.5691 5.98818 18.5741 5.97174 18.5734Z" fill="black"/>
</g>
<path d="M20.5231 10.1305L19.1883 10.9149L16.2653 11.3466C16.2653 11.3466 14.1313 8.074 13.8043 7.55963C13.4774 7.04525 13.0946 6.71533 12.2087 6.71628L12.3764 9.32713C12.4043 9.41175 14.1713 11.6337 15.3366 12.845C15.7483 13.2719 16.0008 13.3813 16.6407 13.1987C18.2829 12.7338 20.2734 11.3561 20.4337 11.0119C20.6488 10.5622 20.5072 10.1401 20.5231 10.1305Z" fill="#FFEDE5"/>
<path d="M19.9745 8.4753C20.1496 7.89152 20.865 7.41613 21.5291 7.60628C21.6343 7.63595 21.7352 7.67976 21.8291 7.73654C22.4811 8.11685 22.9999 9.04387 22.9999 9.80639C23.0021 9.93517 22.9845 10.0635 22.9478 10.1867C22.7736 10.7695 22.0601 11.2487 21.3931 11.0576C21.2881 11.0275 21.1873 10.9838 21.0932 10.9274C20.4468 10.5471 19.9223 9.61909 19.9223 8.85656C19.9205 8.72749 19.9381 8.5989 19.9745 8.4753Z" fill="#455A64"/>
<path d="M21.0942 10.9218C20.4477 10.5415 19.9233 9.6135 19.9233 8.85098C19.9233 8.08845 20.4477 7.78039 21.0942 8.16071C21.7406 8.54102 22.2622 9.46803 22.2622 10.2306C22.2622 10.9931 21.7406 11.3021 21.0942 10.9218Z" fill="#37474F"/>
<path d="M21.094 9.00574C20.8453 8.85932 20.6432 8.97817 20.6432 9.27101C20.6516 9.43065 20.6969 9.586 20.7752 9.72444C20.8535 9.86288 20.9628 9.98051 21.094 10.0678C21.3427 10.2142 21.5439 10.0953 21.5439 9.8025C21.5356 9.64293 21.4906 9.4876 21.4124 9.34915C21.3342 9.21071 21.2251 9.09305 21.094 9.00574Z" fill="#455A64"/>
<path d="M20.9395 9.44609C20.9424 9.50076 20.958 9.55396 20.9849 9.60136C21.0117 9.64876 21.0491 9.68905 21.0941 9.71896C21.1088 9.72981 21.126 9.73679 21.144 9.73928C21.1621 9.74177 21.1804 9.73969 21.1975 9.73322L21.2086 9.72656C21.222 9.71492 21.2324 9.70026 21.2392 9.68375C21.246 9.66724 21.2489 9.64935 21.2478 9.63149C21.2448 9.57691 21.2294 9.5238 21.2027 9.47641C21.176 9.42903 21.1388 9.38868 21.0941 9.35861C21.0793 9.34776 21.0622 9.34078 21.0441 9.33829C21.0261 9.3358 21.0077 9.33789 20.9907 9.34435L20.9795 9.35101C20.966 9.36251 20.9553 9.37712 20.9483 9.39364C20.9413 9.41017 20.9383 9.42814 20.9395 9.44609Z" fill="#37474F"/>
<path d="M18.4665 10.9036C18.4694 10.9582 18.4848 11.0114 18.5115 11.0588C18.5382 11.1062 18.5755 11.1465 18.6202 11.1765C18.6403 11.1897 18.6635 11.1969 18.6873 11.1974C18.7054 11.1971 18.7231 11.1918 18.7385 11.1822L21.1976 9.73322L21.2088 9.72657C21.2221 9.71492 21.2326 9.70026 21.2394 9.68375C21.2462 9.66725 21.2491 9.64935 21.2479 9.63149C21.245 9.57691 21.2295 9.5238 21.2028 9.47641C21.1761 9.42903 21.1389 9.38868 21.0942 9.35861C21.0795 9.34776 21.0623 9.34078 21.0443 9.33829C21.0262 9.3358 21.0079 9.33789 20.9908 9.34435L20.9797 9.35101L18.5206 10.8C18.5029 10.8103 18.4885 10.8255 18.4789 10.8439C18.4694 10.8622 18.4651 10.8829 18.4665 10.9036Z" fill="#FAFAFA"/>
<path d="M16.053 10.7867C16.2272 10.2039 16.9407 9.72186 17.6076 9.91296C17.7129 9.94321 17.814 9.98698 17.9085 10.0432C18.555 10.4235 19.0794 11.3515 19.0794 12.114C19.081 12.2428 19.0634 12.371 19.0272 12.4943C18.8521 13.0772 18.1395 13.5564 17.4726 13.3662C17.3676 13.336 17.2668 13.2922 17.1726 13.236C16.5262 12.8556 16.0018 11.9277 16.0018 11.1661C15.9996 11.0377 16.0169 10.9097 16.053 10.7867Z" fill="#455A64"/>
<path d="M17.1717 13.2322C16.5253 12.8519 16.0009 11.9239 16.0009 11.1623C16.0009 10.4007 16.5253 10.0908 17.1717 10.4711C17.8182 10.8514 18.3426 11.7794 18.3426 12.5419C18.3426 13.3044 17.8191 13.6134 17.1717 13.2322Z" fill="#37474F"/>
<path d="M17.1717 11.3144C16.923 11.167 16.7218 11.2859 16.7218 11.5797C16.7302 11.7391 16.7754 11.8942 16.8535 12.0325C16.9317 12.1708 17.0407 12.2883 17.1717 12.3755C17.4204 12.5219 17.6226 12.403 17.6226 12.1102C17.614 11.9507 17.5687 11.7956 17.4903 11.6573C17.412 11.519 17.3028 11.4016 17.1717 11.3144Z" fill="#455A64"/>
<path d="M17.0181 11.7565C17.021 11.8111 17.0364 11.8642 17.0631 11.9116C17.0898 11.959 17.127 11.9993 17.1718 12.0294C17.1866 12.0402 17.2037 12.0472 17.2218 12.0497C17.2398 12.0522 17.2581 12.0501 17.2752 12.0436C17.2793 12.0422 17.2831 12.0399 17.2864 12.037C17.2999 12.0254 17.3105 12.0108 17.3175 11.9943C17.3244 11.9778 17.3275 11.9598 17.3264 11.9419C17.3234 11.8872 17.3078 11.8341 17.2809 11.7867C17.2541 11.7393 17.2167 11.699 17.1718 11.669C17.1571 11.6585 17.14 11.6517 17.1222 11.6494C17.1043 11.6471 17.0862 11.6493 17.0693 11.6557L17.0582 11.6623C17.0446 11.6737 17.0339 11.6881 17.027 11.7045C17.02 11.7208 17.017 11.7387 17.0181 11.7565Z" fill="#37474F"/>
<path d="M16.6456 11.9798C16.6482 12.0344 16.6636 12.0876 16.6903 12.1351C16.717 12.1825 16.7543 12.2228 16.7993 12.2526C16.8193 12.2658 16.8425 12.2731 16.8663 12.2736C16.8844 12.2731 16.9021 12.2679 16.9176 12.2584L17.2753 12.0473C17.2794 12.0458 17.2832 12.0436 17.2864 12.0406C17.2999 12.0291 17.3106 12.0145 17.3175 11.9979C17.3245 11.9814 17.3276 11.9635 17.3265 11.9455C17.3234 11.8909 17.3078 11.8377 17.281 11.7903C17.2541 11.7429 17.2168 11.7026 17.1719 11.6727C17.1571 11.6621 17.1401 11.6554 17.1222 11.6531C17.1044 11.6508 17.0863 11.6529 17.0694 11.6594L17.0582 11.666L16.6996 11.8761C16.682 11.8865 16.6675 11.9017 16.658 11.92C16.6484 11.9383 16.6441 11.9591 16.6456 11.9798Z" fill="#FAFAFA"/>
<path d="M16.6455 11.98C16.6482 12.0348 16.6635 12.0881 16.6902 12.1357C16.7169 12.1833 16.7543 12.2237 16.7992 12.2538C16.8141 12.2644 16.8313 12.2711 16.8493 12.2734C16.8673 12.2758 16.8855 12.2736 16.9025 12.2672L16.9137 12.2605C16.9273 12.2491 16.9381 12.2344 16.945 12.2179C16.952 12.2014 16.955 12.1834 16.9538 12.1654C16.9506 12.1107 16.935 12.0574 16.9082 12.0098C16.8813 11.9623 16.844 11.9218 16.7992 11.8916C16.7842 11.8811 16.7671 11.8743 16.7491 11.872C16.7311 11.8697 16.7128 11.8718 16.6958 11.8783L16.6846 11.8849C16.6712 11.8965 16.6607 11.9112 16.6539 11.9277C16.6471 11.9442 16.6442 11.9622 16.6455 11.98Z" fill="#E0E0E0"/>
<path d="M19.6699 11.6812C20.2353 11.241 20.7775 11.2439 20.6797 10.1676C20.5968 9.69221 20.4813 9.65798 20.0276 9.47733C19.8283 9.39841 19.5619 9.33851 19.4026 9.52487C19.3851 9.54828 19.3658 9.57022 19.3449 9.59047C19.2979 9.62102 19.244 9.63871 19.1884 9.64181C19.0822 9.64711 18.9812 9.69055 18.9033 9.76446C18.8502 9.82627 18.8298 9.91089 18.7776 9.97269C18.7275 10.0211 18.6736 10.0653 18.6164 10.1048C18.5755 10.1411 18.5425 10.1857 18.5195 10.2359C18.4966 10.286 18.4842 10.3405 18.4832 10.3958C18.487 10.459 18.5043 10.5207 18.5339 10.5764C18.5635 10.632 18.6047 10.6804 18.6546 10.7181L18.9397 10.5508C19.0561 10.469 19.2964 10.7609 19.193 10.9149C19.0282 11.1602 19.6699 11.6812 19.6699 11.6812Z" fill="#FFEDE5"/>
<path d="M13.0844 13.8453C13.2651 13.0999 13.3173 11.2373 13.3173 11.2373L8.02836 11.3989L8.31619 12.5751C8.36368 12.8402 8.38892 13.109 8.39164 13.3785C8.39164 13.3785 8.90488 14.3492 10.4269 14.5194C11.3621 14.6104 12.2997 14.3726 13.0844 13.8453Z" fill="#FFEDE5"/>
<path d="M13.3201 11.2373C13.3267 11.2963 13.2894 11.8601 13.2894 11.8601C12.6132 12.441 10.4437 12.7348 8.16628 11.9618L7.68378 10.0603C7.68378 10.0603 9.32132 9.32625 8.21472 6.86372L9.40422 6.76864L11.5159 6.71445H12.2089C12.7787 7.27953 13.2603 7.93046 13.6368 8.64453C13.9135 9.17127 14.2656 9.9433 13.3201 11.2373Z" fill="#455A64"/>
<path d="M10.3274 11.2543C9.37446 11.0062 9.136 10.3986 9.068 9.95175C9.068 9.95175 8.88823 11.2543 10.25 11.5576C11.6864 11.8771 12.2769 10.7162 12.2769 10.7162C12.2769 10.7162 11.4768 11.5538 10.3274 11.2543Z" fill="#37474F"/>
<path d="M2.21593 25.749C1.93649 25.9572 1.29284 26.0076 0.72557 25.7357C0.158301 25.4637 -0.0782935 24.6898 0.0278948 24.0917C0.156438 23.3625 0.509468 22.9641 0.59889 22.5249C0.688311 22.0856 0.59889 21.479 0.734885 21.0873C0.790944 20.9367 0.878238 20.8003 0.990782 20.6874C1.10333 20.5745 1.23846 20.4877 1.38692 20.4331C1.48157 20.3958 1.58334 20.3811 1.68442 20.3902C1.7855 20.3992 1.8832 20.4318 1.97002 20.4854L2.13769 20.5862L2.21593 25.749Z" fill="#263238"/>
<path d="M2.88205 22.9681L2.44053 24.3201C2.44053 24.3201 2.71997 25.2842 2.56255 25.5409C2.33061 25.9212 1.9217 25.9878 1.23334 25.7729C0.446239 25.5285 0.260875 24.8012 0.30186 24.2364C0.357749 23.4311 1.08709 22.8254 1.00326 22.0496C0.962276 21.6693 1.01351 21.2443 1.2175 20.9172C1.44571 20.5521 1.82016 20.4837 2.20859 20.6025C2.54206 20.7052 2.83454 20.9191 3.11678 21.1197C3.19781 21.1724 3.27118 21.2364 3.33474 21.3099C3.38531 21.3787 3.42318 21.4564 3.44652 21.539C3.49759 21.7052 3.51284 21.8807 3.49123 22.0534C3.47074 22.215 3.36921 22.3092 3.27513 22.4337L2.88205 22.9681Z" fill="url(#paint0_linear_1_753)"/>
<path d="M4.78487 22.3282C4.75785 22.3178 3.40908 21.4374 3.26377 21.3708C3.11846 21.3042 2.76077 21.2101 2.41519 22.0268C2.16835 22.6078 2.52324 22.8226 2.52324 22.8226L4.10675 23.7829L4.78487 22.3282Z" fill="#FFEDE5"/>
<path d="M2.44037 24.3201C2.15499 24.1745 1.83904 24.1023 1.52007 24.11C1.49639 24.1122 1.47253 24.1085 1.45057 24.0992C1.42862 24.0898 1.40925 24.0751 1.39417 24.0563C1.37909 24.0376 1.36875 24.0153 1.36407 23.9915C1.35939 23.9677 1.3605 23.9431 1.36731 23.9198C1.37628 23.8921 1.3931 23.8677 1.41566 23.8498C1.43821 23.8318 1.46547 23.8211 1.49399 23.819C1.7073 23.8019 2.2252 23.7952 2.56892 24.0843C2.6602 24.2725 2.44037 24.3201 2.44037 24.3201Z" fill="url(#paint1_linear_1_753)"/>
<path d="M2.60245 23.702C2.32493 23.5416 2.01308 23.4531 1.69426 23.4443C1.67026 23.4455 1.64633 23.4407 1.62462 23.4301C1.60292 23.4196 1.58411 23.4037 1.5699 23.3839C1.55568 23.3641 1.5465 23.341 1.54317 23.3167C1.53984 23.2924 1.54247 23.2677 1.55082 23.2447C1.56109 23.2174 1.57904 23.1938 1.6024 23.1769C1.62577 23.16 1.65352 23.1505 1.68215 23.1496C1.89639 23.1439 2.41429 23.1658 2.74311 23.4719C2.82414 23.6668 2.60245 23.702 2.60245 23.702Z" fill="url(#paint2_linear_1_753)"/>
<path opacity="0.3" d="M2.44037 24.3201C2.15499 24.1745 1.83904 24.1023 1.52007 24.11C1.49639 24.1122 1.47253 24.1085 1.45057 24.0992C1.42862 24.0898 1.40925 24.0751 1.39417 24.0563C1.37909 24.0376 1.36875 24.0153 1.36407 23.9915C1.35939 23.9677 1.3605 23.9431 1.36731 23.9198C1.37628 23.8921 1.3931 23.8677 1.41566 23.8498C1.43821 23.8318 1.46547 23.8211 1.49399 23.819C1.7073 23.8019 2.2252 23.7952 2.56892 24.0843C2.6602 24.2725 2.44037 24.3201 2.44037 24.3201Z" fill="black"/>
<path opacity="0.3" d="M2.60245 23.702C2.32493 23.5416 2.01308 23.4531 1.69426 23.4443C1.67026 23.4455 1.64633 23.4407 1.62462 23.4301C1.60292 23.4196 1.58411 23.4037 1.5699 23.3839C1.55568 23.3641 1.5465 23.341 1.54317 23.3167C1.53984 23.2924 1.54247 23.2677 1.55082 23.2447C1.56109 23.2174 1.57904 23.1938 1.6024 23.1769C1.62577 23.16 1.65352 23.1505 1.68215 23.1496C1.89639 23.1439 2.41429 23.1658 2.74311 23.4719C2.82414 23.6668 2.60245 23.702 2.60245 23.702Z" fill="black"/>
<path d="M16.3485 25.8954L18.1006 25.1862C18.0708 24.725 17.959 24.1108 18.0754 22.9043L16.0877 22.5183V24.5491L16.3485 25.8954Z" fill="#FFEDE5"/>
<path d="M21.3475 27.4663C21.3941 27.6103 21.3854 27.7669 21.3233 27.9046C21.2637 28.033 20.607 28.4105 19.7212 28.3496C19.0643 28.3026 18.4317 28.0771 17.889 27.6964C17.5518 27.4682 17.1997 27.4255 16.7619 27.3998C16.3241 27.3741 15.7466 27.1507 15.6506 26.9415C15.5547 26.7323 15.6655 26.371 15.6655 26.371L21.3475 27.4663Z" fill="#263238"/>
<path d="M17.7734 24.6444L17.8432 24.6291C17.8812 24.6187 17.9209 24.6168 17.9597 24.6234C18.0027 24.637 18.0409 24.6631 18.0696 24.6985C18.1563 24.8114 18.2318 24.9327 18.295 25.0608C18.4813 25.3698 18.8706 25.6265 19.2963 25.8595C19.586 26.0182 19.8692 26.1447 20.1682 26.2787C20.4672 26.4128 20.877 26.5041 21.1155 26.6686C21.4629 26.9072 21.5086 27.5081 21.1155 27.7449C20.7746 27.9502 19.8757 28.1718 18.933 27.8989C18.4189 27.7506 17.8488 27.1905 17.1754 27.1383C16.7469 27.104 15.9356 26.9814 15.6598 26.6496C15.5583 26.5022 15.6943 26.0344 15.8061 25.6313C15.9281 25.191 15.9728 24.4152 16.1163 24.4542C16.1163 24.4542 16.0771 24.5635 16.133 24.6225C16.1889 24.6814 16.3855 24.7993 16.4432 24.8488C16.5398 24.9493 16.6177 25.0669 16.6733 25.1958C16.6964 25.254 16.7394 25.3017 16.7944 25.3299C16.867 25.3574 16.9211 25.3108 16.9807 25.2814C17.0613 25.2446 17.152 25.2382 17.2368 25.2633C17.2287 25.176 17.2134 25.0895 17.1912 25.0047C17.1817 24.9779 17.1794 24.949 17.1847 24.921C17.1964 24.8949 17.2155 24.8731 17.2396 24.8583C17.4009 24.7497 17.5828 24.6768 17.7734 24.6444Z" fill="url(#paint3_linear_1_753)"/>
<path d="M18.8957 25.6217C18.8957 25.6217 18.8343 25.4534 18.58 25.4059C18.3844 25.3688 18.0397 25.5152 17.8255 25.6911C17.8053 25.7081 17.7895 25.7299 17.7794 25.7545C17.7693 25.7791 17.7653 25.8058 17.7676 25.8324C17.7699 25.859 17.7784 25.8846 17.7926 25.907C17.8067 25.9294 17.826 25.948 17.8488 25.9612C17.878 25.9782 17.9118 25.9854 17.9453 25.9816C17.9787 25.9779 18.0102 25.9634 18.0351 25.9402C18.2709 25.7246 18.5793 25.6105 18.8957 25.6217Z" fill="url(#paint4_linear_1_753)"/>
<path d="M19.5004 25.9669C19.4582 25.9062 19.4023 25.8566 19.3375 25.8223C19.2727 25.7881 19.2008 25.7702 19.1278 25.7701C19.1278 25.7701 18.6183 25.7853 18.3025 26.0848C18.2833 26.1013 18.2682 26.1223 18.2586 26.146C18.249 26.1697 18.2451 26.1955 18.2473 26.221C18.2495 26.2466 18.2577 26.2712 18.2712 26.2929C18.2847 26.3145 18.3031 26.3325 18.3248 26.3453C18.3525 26.361 18.3843 26.3675 18.4157 26.3637C18.4471 26.36 18.4766 26.3462 18.5 26.3244C18.63 26.1924 18.7873 26.0918 18.9605 26.0299C19.1336 25.968 19.318 25.9465 19.5004 25.9669Z" fill="url(#paint5_linear_1_753)"/>
<path d="M20.1683 26.2786C20.1197 26.2222 20.0598 26.1771 19.9926 26.1464C19.9254 26.1158 19.8525 26.1002 19.779 26.1008C19.779 26.1008 19.3039 26.1189 18.9891 26.4183C18.9696 26.4347 18.9543 26.4556 18.9445 26.4793C18.9347 26.503 18.9307 26.5287 18.9328 26.5544C18.9349 26.58 18.943 26.6047 18.9566 26.6264C18.9701 26.6481 18.9886 26.6661 19.0105 26.6789C19.0383 26.6945 19.0702 26.7009 19.1018 26.6971C19.1333 26.6934 19.163 26.6797 19.1865 26.658C19.31 26.5211 19.463 26.4155 19.6334 26.3497C19.8039 26.2838 19.987 26.2595 20.1683 26.2786Z" fill="url(#paint6_linear_1_753)"/>
<path opacity="0.3" d="M18.8957 25.6217C18.8957 25.6217 18.8343 25.4534 18.58 25.4059C18.3844 25.3688 18.0397 25.5152 17.8255 25.6911C17.8053 25.7081 17.7895 25.7299 17.7794 25.7545C17.7693 25.7791 17.7653 25.8058 17.7676 25.8324C17.7699 25.859 17.7784 25.8846 17.7926 25.907C17.8067 25.9294 17.826 25.948 17.8488 25.9612C17.878 25.9782 17.9118 25.9854 17.9453 25.9816C17.9787 25.9779 18.0102 25.9634 18.0351 25.9402C18.2709 25.7246 18.5793 25.6105 18.8957 25.6217Z" fill="black"/>
<path opacity="0.3" d="M19.5004 25.9669C19.4582 25.9062 19.4023 25.8566 19.3375 25.8223C19.2727 25.7881 19.2008 25.7702 19.1278 25.7701C19.1278 25.7701 18.6183 25.7853 18.3025 26.0848C18.2833 26.1013 18.2682 26.1223 18.2586 26.146C18.249 26.1697 18.2451 26.1955 18.2473 26.221C18.2495 26.2466 18.2577 26.2712 18.2712 26.2929C18.2847 26.3145 18.3031 26.3325 18.3248 26.3453C18.3525 26.361 18.3843 26.3675 18.4157 26.3637C18.4471 26.36 18.4766 26.3462 18.5 26.3244C18.63 26.1924 18.7873 26.0918 18.9605 26.0299C19.1336 25.968 19.318 25.9465 19.5004 25.9669Z" fill="black"/>
<path opacity="0.3" d="M20.1683 26.2786C20.1197 26.2222 20.0598 26.1771 19.9926 26.1464C19.9254 26.1158 19.8525 26.1002 19.779 26.1008C19.779 26.1008 19.3039 26.1189 18.9891 26.4183C18.9696 26.4347 18.9543 26.4556 18.9445 26.4793C18.9347 26.503 18.9307 26.5287 18.9328 26.5544C18.9349 26.58 18.943 26.6047 18.9566 26.6264C18.9701 26.6481 18.9886 26.6661 19.0105 26.6789C19.0383 26.6945 19.0702 26.7009 19.1018 26.6971C19.1333 26.6934 19.163 26.6797 19.1865 26.658C19.31 26.5211 19.463 26.4155 19.6334 26.3497C19.8039 26.2838 19.987 26.2595 20.1683 26.2786Z" fill="black"/>
<path d="M17.5461 15.6964C16.2141 15.3912 13.0331 14.7124 13.0331 14.7124L13.0844 13.8452C11.934 14.4537 9.50935 14.2817 8.39158 13.3784L8.21553 14.2978C7.79173 14.8157 7.42471 15.3794 7.12105 15.9788C6.86582 16.4951 6.43921 17.3004 6.86396 19.1763C7.11359 20.2782 7.44613 23.1791 7.44613 23.1791L4.18597 21.9526C4.18597 21.9526 3.90652 22.0011 3.66993 22.6248C3.53021 22.9937 3.48363 23.3483 3.62522 23.5318C4.81751 24.4931 6.74939 26.0628 8.70176 26.9432C10.0058 27.4529 10.6988 26.3338 10.7622 25.9192C11.0072 24.3314 11.2894 19.2295 11.2894 19.2295L15.6487 19.0879C15.5043 19.9303 16.0912 23.2219 16.0912 23.2219C16.0912 23.2219 17.1642 23.6973 18.0528 23.2105C18.0528 23.2105 18.6471 19.4225 18.7049 18.1589C18.7636 16.7499 18.8344 15.9921 17.5461 15.6964Z" fill="url(#paint7_linear_1_753)"/>
<path opacity="0.15" d="M15.6488 19.088C15.6488 18.8607 15.7969 18.0668 16.3009 17.6437C16.3009 17.6437 15.6097 17.7702 15.293 19.0994L15.6488 19.088Z" fill="black"/>
<path opacity="0.15" d="M7.44626 23.1792C7.44626 23.1792 7.5394 24.4314 7.77413 25.0418C7.77413 25.0418 7.18638 23.9579 7.1221 23.0556L7.44626 23.1792Z" fill="black"/>
<path opacity="0.15" d="M13.0322 14.7125L13.0834 13.8463C11.9331 14.4539 9.50937 14.2818 8.39253 13.3795L8.21649 14.298C8.2258 14.3065 8.94304 15.0633 10.8079 15.1613C12.6727 15.2592 13.0322 14.7125 13.0322 14.7125Z" fill="black"/>
<path opacity="0.15" d="M11.2931 19.2297C11.2776 18.7591 11.1686 18.2966 10.9726 17.8703C10.7766 17.444 10.4977 17.0629 10.153 16.7501C10.153 16.7501 11.1552 17.2254 11.4906 18.7305C11.4906 18.7305 12.2357 18.3759 12.6251 17.3129C12.6251 17.3129 12.5059 18.3759 11.906 18.9806L13.714 19.1508L11.2931 19.2297Z" fill="black"/>
<path d="M10.7118 3.8025e-06C10.3291 -0.000621023 9.95007 0.0757633 9.59632 0.224789C9.24257 0.373814 8.92107 0.592557 8.6502 0.868508C8.37934 1.14446 8.16442 1.4722 8.01774 1.833C7.87106 2.1938 7.7955 2.58057 7.79538 2.9712C7.79538 3.36191 7.87085 3.74879 8.01747 4.10969C8.1641 4.4706 8.37899 4.79846 8.64987 5.07451C8.92075 5.35056 9.24229 5.56939 9.59611 5.71848C9.94992 5.86756 10.3291 5.94398 10.7118 5.94335C11.4832 5.94209 12.2225 5.62837 12.7674 5.07109C13.3124 4.51382 13.6183 3.75855 13.618 2.9712C13.618 2.18401 13.312 1.429 12.7671 0.871927C12.2222 0.314855 11.483 0.0012633 10.7118 3.8025e-06Z" fill="#263238"/>
<path d="M7.67079 1.80635C7.77606 1.80143 7.88155 1.80749 7.98563 1.82442C8.02089 1.82679 8.05406 1.84236 8.07877 1.86815C8.09311 1.88949 8.10119 1.91456 8.10206 1.94041C8.1261 2.10548 8.11109 2.27403 8.05828 2.43197C8.0173 2.54226 7.88968 2.59836 7.80865 2.67822C7.49381 2.99008 7.46866 3.50635 7.59254 3.93516C7.71643 4.36396 7.96513 4.74618 8.12628 5.16072C8.28742 5.57526 8.37312 6.07442 8.14491 6.49181C8.05642 6.65155 7.89527 6.77705 7.91483 6.96721C7.93719 7.20015 8.13652 7.42263 8.22222 7.63275C8.31629 7.88168 8.34829 8.15057 8.31537 8.41525C8.29178 8.74433 8.17206 9.05864 7.97165 9.31754C7.81846 9.49977 7.6207 9.6373 7.3985 9.71613C7.1763 9.79496 6.9376 9.81227 6.70671 9.76631C6.60936 9.74897 6.51724 9.70895 6.43751 9.64937C6.30059 9.53717 6.24563 9.35367 6.17111 9.19109C5.93172 8.66531 5.42593 8.28309 5.27224 7.72498C5.1055 7.13074 5.38308 6.51273 5.724 6.00787C5.88328 5.77207 6.0612 5.54103 6.13944 5.2653C6.2447 4.89355 6.15248 4.49802 6.12826 4.11105C6.10516 3.73306 6.14773 3.35388 6.25401 2.99103C6.33039 2.72861 6.44869 2.42626 6.64896 2.23801C6.93001 1.97719 7.29136 1.82454 7.67079 1.80635Z" fill="#263238"/>
<path d="M12.532 1.35951C12.8505 1.55442 13.2427 2.37685 13.1971 4.09777C13.1579 5.55627 12.6931 5.91472 12.4603 6.01835C12.2274 6.12199 11.7784 6.05543 11.3425 5.97937V6.85504C11.3425 6.85504 11.9424 7.57193 11.9014 7.97411C11.8604 8.3763 11.0295 8.46662 10.4669 8.06919C9.90428 7.67177 9.43203 6.90829 9.43203 6.90829L9.45066 4.89453C9.45066 4.89453 9.19077 5.15124 8.75577 4.76142C8.39902 4.4391 8.27979 3.89811 8.5611 3.61287C8.8424 3.32764 9.35937 3.40465 9.55684 3.81919C9.55684 3.81919 10.2517 3.84771 11.1804 3.33239C11.5417 3.13503 11.8523 2.85357 12.0871 2.5108C12.322 2.16803 12.4744 1.77362 12.532 1.35951Z" fill="#FFEDE5"/>
<path d="M11.6025 3.72521C11.6026 3.76125 11.5924 3.79654 11.573 3.82668C11.5537 3.85682 11.526 3.88047 11.4936 3.89468C11.4611 3.90889 11.4253 3.91302 11.3905 3.90657C11.3558 3.90012 11.3237 3.88337 11.2982 3.85841C11.2727 3.83345 11.255 3.80138 11.2473 3.76621C11.2396 3.73104 11.2422 3.69432 11.2547 3.66065C11.2673 3.62697 11.2893 3.59782 11.3181 3.57683C11.3468 3.55585 11.3809 3.54396 11.4162 3.54266C11.4643 3.54262 11.5106 3.5616 11.5454 3.59564C11.5801 3.62967 11.6006 3.6761 11.6025 3.72521Z" fill="#263238"/>
<g style="mix-blend-mode:multiply" opacity="0.5">
<g style="mix-blend-mode:multiply" opacity="0.5">
<path d="M11.6435 4.96206L12.0598 5.09898C12.0523 5.12751 12.0391 5.15418 12.0212 5.17741C12.0033 5.20063 11.981 5.21992 11.9556 5.23412C11.9302 5.24833 11.9022 5.25715 11.8734 5.26007C11.8446 5.26299 11.8155 5.25994 11.7879 5.2511C11.7317 5.23154 11.6852 5.19042 11.6583 5.13646C11.6313 5.0825 11.626 5.01995 11.6435 4.96206Z" fill="#F28F8F"/>
</g>
</g>
<path d="M13.0788 3.16793L12.7165 2.90932C12.7317 2.88428 12.7517 2.86267 12.7754 2.84582C12.799 2.82898 12.8258 2.81726 12.8541 2.81138C12.8824 2.8055 12.9115 2.80559 12.9398 2.81164C12.968 2.81769 12.9947 2.82958 13.0183 2.84657C13.0664 2.88232 13.0995 2.93539 13.1107 2.99506C13.1219 3.05472 13.1105 3.11651 13.0788 3.16793Z" fill="#263238"/>
<path d="M12.9932 3.59786C12.9935 3.63395 12.9834 3.66933 12.9642 3.69959C12.9449 3.72986 12.9173 3.75365 12.8849 3.76801C12.8525 3.78236 12.8166 3.78663 12.7818 3.78029C12.747 3.77395 12.7148 3.75727 12.6892 3.73235C12.6637 3.70743 12.6459 3.67536 12.6381 3.64017C12.6303 3.60498 12.6328 3.56821 12.6453 3.53448C12.6579 3.50075 12.6799 3.47154 12.7086 3.45051C12.7374 3.42949 12.7715 3.41757 12.8069 3.41626C12.8549 3.41621 12.901 3.43507 12.9357 3.4689C12.9704 3.50273 12.991 3.54893 12.9932 3.59786Z" fill="#263238"/>
<g style="mix-blend-mode:multiply" opacity="0.5">
<g style="mix-blend-mode:multiply" opacity="0.5">
<path d="M12.1455 3.48936L12.1697 4.59417L12.7398 4.41637L12.1455 3.48936Z" fill="#F28F8F"/>
</g>
</g>
<g style="mix-blend-mode:multiply" opacity="0.5">
<g style="mix-blend-mode:multiply" opacity="0.5">
<path d="M11.3436 5.97951C10.8834 5.91676 9.93889 5.63532 9.79358 5.25311C9.85211 5.44625 9.96719 5.61647 10.1233 5.74086C10.4046 5.98997 11.3417 6.2752 11.3417 6.2752L11.3436 5.97951Z" fill="#F28F8F"/>
</g>
</g>
<path d="M8.21468 6.86467C7.31301 6.93028 6.94135 7.04722 6.43929 8.18436C5.98752 9.20645 4.90701 11.8515 4.63688 12.441C4.36675 13.0305 4.31552 13.2672 4.54373 13.8843C4.73003 14.3873 6.25206 17.2767 6.4188 17.6979C6.58553 18.1191 6.65912 18.545 6.94322 19.0357C7.22732 19.5263 7.67629 20.0055 8.03118 20.1186C8.55746 20.2869 9.2421 20.053 9.26166 19.7288C9.28122 19.4046 8.48947 18.8636 8.2743 18.1438C8.41748 18.2398 8.56829 18.3235 8.72513 18.3939C8.93844 18.4832 9.17689 18.4633 9.24769 18.3397C9.31848 18.2161 9.10517 18.141 8.91515 17.948C8.80151 17.8329 8.60031 17.5743 8.34322 17.3461C8.16904 17.1921 7.88401 17.1464 7.75546 16.9772C7.68653 16.8869 7.37356 16.1044 7.13789 15.4075C6.84727 14.5432 6.46444 13.3928 6.46444 13.3928L8.03118 10.065C8.03118 10.065 9.2598 8.81378 8.21468 6.86467Z" fill="#FFEDE5"/>
<path d="M6.41602 17.6979C6.41602 17.6979 6.7765 16.9534 7.75268 16.9772L7.49466 16.3915C7.49466 16.3915 6.54177 16.46 6.1403 17.1189L6.41602 17.6979Z" fill="#37474F"/>
<path d="M6.31067 17.0656L6.52025 17.3689C6.53543 17.391 6.55479 17.4097 6.5772 17.4239C6.59961 17.4382 6.6246 17.4477 6.65068 17.4518C6.67676 17.456 6.7034 17.4548 6.729 17.4482C6.7546 17.4416 6.77865 17.4299 6.7997 17.4136L7.17229 17.1284C7.2156 17.0945 7.24463 17.0451 7.25346 16.9901C7.26228 16.9352 7.25024 16.8789 7.21979 16.8327L7.02512 16.5398C7.01047 16.5172 6.99147 16.4979 6.96927 16.4831C6.94707 16.4682 6.92214 16.4581 6.896 16.4534C6.86985 16.4487 6.84304 16.4494 6.8172 16.4556C6.79136 16.4618 6.76702 16.4733 6.74567 16.4894L6.35073 16.7747C6.30772 16.8079 6.27936 16.8572 6.27186 16.9117C6.26435 16.9662 6.27831 17.0216 6.31067 17.0656Z" fill="#263238"/>
<path d="M6.24086 17.0581L6.4523 17.3614C6.46756 17.3834 6.48696 17.402 6.50937 17.4161C6.53178 17.4303 6.55675 17.4398 6.58279 17.4439C6.60883 17.4481 6.63543 17.4469 6.66101 17.4404C6.6866 17.4339 6.71065 17.4222 6.73175 17.4061L7.10434 17.1209C7.14761 17.087 7.17668 17.0377 7.18567 16.9828C7.19466 16.9279 7.1829 16.8716 7.15277 16.8252L6.95809 16.5323C6.94336 16.5099 6.92432 16.4906 6.90212 16.4758C6.87991 16.4611 6.85501 16.451 6.8289 16.4463C6.8028 16.4416 6.77603 16.4423 6.75021 16.4485C6.72439 16.4546 6.70005 16.466 6.67865 16.482L6.2837 16.7719C6.24139 16.8045 6.21322 16.8527 6.20522 16.9061C6.19721 16.9596 6.21 17.0142 6.24086 17.0581Z" fill="#455A64"/>
<path d="M7.11451 16.9582C7.1098 16.9958 7.09072 17.03 7.06142 17.0532L6.68883 17.3385C6.67588 17.349 6.66086 17.3566 6.64479 17.3607C6.62872 17.3648 6.61197 17.3653 6.59568 17.3622C6.57971 17.3597 6.56439 17.354 6.55063 17.3453C6.53688 17.3367 6.52495 17.3253 6.51557 17.3119L6.3032 17.0076C6.28527 16.9823 6.2773 16.9511 6.28084 16.9201C6.28211 16.9013 6.28744 16.8831 6.29646 16.8666C6.30548 16.8502 6.31796 16.836 6.333 16.8251L6.72795 16.5398C6.74116 16.5298 6.75625 16.5227 6.77228 16.5189C6.78831 16.5152 6.80493 16.5148 6.8211 16.518C6.83705 16.5208 6.85228 16.5269 6.86588 16.5359C6.87948 16.5449 6.89117 16.5566 6.90027 16.5702L7.09495 16.8631C7.11322 16.8911 7.12114 16.9248 7.1173 16.9582H7.11451Z" fill="url(#paint8_linear_1_753)"/>
</g>
<defs>
<linearGradient id="paint0_linear_1_753" x1="3.50076" y1="25.8942" x2="-0.786142" y2="25.6953" gradientUnits="userSpaceOnUse">
<stop stop-color="#92A3FD"/>
<stop offset="1" stop-color="#9DCEFF"/>
</linearGradient>
<linearGradient id="paint1_linear_1_753" x1="2.59111" y1="24.3201" x2="0.998062" y2="24.0215" gradientUnits="userSpaceOnUse">
<stop stop-color="#92A3FD"/>
<stop offset="1" stop-color="#9DCEFF"/>
</linearGradient>
<linearGradient id="paint2_linear_1_753" x1="2.76092" y1="23.702" x2="1.17252" y2="23.4311" gradientUnits="userSpaceOnUse">
<stop stop-color="#92A3FD"/>
<stop offset="1" stop-color="#9DCEFF"/>
</linearGradient>
<linearGradient id="paint3_linear_1_753" x1="21.3935" y1="28.0259" x2="13.777" y2="27.0742" gradientUnits="userSpaceOnUse">
<stop stop-color="#92A3FD"/>
<stop offset="1" stop-color="#9DCEFF"/>
</linearGradient>
<linearGradient id="paint4_linear_1_753" x1="18.8957" y1="25.9826" x2="17.4156" y2="25.7606" gradientUnits="userSpaceOnUse">
<stop stop-color="#92A3FD"/>
<stop offset="1" stop-color="#9DCEFF"/>
</linearGradient>
<linearGradient id="paint5_linear_1_753" x1="19.5004" y1="26.3648" x2="17.8631" y2="26.0976" gradientUnits="userSpaceOnUse">
<stop stop-color="#92A3FD"/>
<stop offset="1" stop-color="#9DCEFF"/>
</linearGradient>
<linearGradient id="paint6_linear_1_753" x1="20.1683" y1="26.6982" x2="18.5524" y2="26.4395" gradientUnits="userSpaceOnUse">
<stop stop-color="#92A3FD"/>
<stop offset="1" stop-color="#9DCEFF"/>
</linearGradient>
<linearGradient id="paint7_linear_1_753" x1="18.7308" y1="27.0737" x2="-1.48852" y2="25.3382" gradientUnits="userSpaceOnUse">
<stop stop-color="#92A3FD"/>
<stop offset="1" stop-color="#9DCEFF"/>
</linearGradient>
<linearGradient id="paint8_linear_1_753" x1="7.11825" y1="17.3642" x2="6.0009" y2="17.2788" gradientUnits="userSpaceOnUse">
<stop stop-color="#92A3FD"/>
<stop offset="1" stop-color="#9DCEFF"/>
</linearGradient>
<clipPath id="clip0_1_753">
<rect width="22.9688" height="28.3176" fill="white" transform="scale(1.00136)"/>
</clipPath>
</defs>
</svg>
