<svg width="26" height="26" viewBox="0 0 26 26" fill="none" xmlns="http://www.w3.org/2000/svg">
<path d="M4.3115 8.90779C3.31147 10.09 2.54836 11.479 2.09546 13.0016C3.49436 17.6994 7.84661 21.125 12.9989 21.125C14.0742 21.125 15.1147 20.9758 16.1007 20.697M6.7465 6.7466C8.54078 5.56355 10.6899 4.875 12.9999 4.875C18.1522 4.875 22.5044 8.30055 23.9034 12.9984C23.1321 15.5912 21.4613 17.7967 19.2529 19.253M6.7465 6.7466L3.24991 3.25M6.7465 6.7466L10.7018 10.7019M19.2529 19.253L22.7499 22.75M19.2529 19.253L15.298 15.2981M15.298 15.2981C15.8861 14.71 16.2499 13.8975 16.2499 13C16.2499 11.2051 14.7948 9.75 12.9999 9.75C12.1024 9.75 11.2899 10.1138 10.7018 10.7019M15.298 15.2981L10.7018 10.7019" stroke="white" stroke-width="1.5" stroke-linecap="round" stroke-linejoin="round"/>
</svg>
